<?xml version="1.0" standalone="no"?>
<svg version="1.0" xmlns="http://www.w3.org/2000/svg"
 width="500.000000pt" height="150.000000pt" viewBox="0 0 500.000000 150.000000"
 preserveAspectRatio="xMidYMid meet">

<g transform="translate(0.000000,150.000000) scale(0.100000,-0.100000)"
fill="#000000" stroke="none">
<path d="M1855 1478 c-139 -15 -220 -18 -445 -15 l-276 5 -43 -202 c-24 -110
-48 -204 -53 -207 -10 -7 -247 24 -362 47 -108 21 -292 68 -391 98 -43 14 -81
23 -83 21 -3 -2 19 -129 47 -282 28 -153 51 -286 51 -296 0 -10 -67 -114 -149
-232 l-150 -214 82 -26 c540 -171 1064 -211 1740 -134 170 19 253 32 717 113
540 94 1173 141 1430 107 187 -25 505 -96 702 -155 65 -20 122 -36 127 -36 5
0 5 18 0 43 -5 23 -29 156 -53 295 l-43 254 41 61 c23 34 90 133 149 219 l107
157 -98 30 c-247 76 -470 122 -707 145 -475 46 -899 19 -1562 -100 -352 -63
-506 -86 -512 -75 -4 5 -24 98 -45 205 -21 108 -41 195 -45 195 -3 -1 -82 -10
-176 -21z m45 -117 c0 -24 -5 -29 -31 -35 -17 -3 -46 -6 -63 -6 -17 0 -38 -5
-46 -11 -11 -7 1 -9 45 -7 58 3 60 2 60 -22 0 -22 -6 -26 -55 -35 -50 -10 -55
-14 -58 -39 l-4 -29 49 7 c26 4 60 9 76 12 25 5 27 3 27 -24 0 -32 -1 -33
-137 -48 l-63 -7 0 125 0 125 93 10 c50 6 95 11 100 11 4 1 7 -11 7 -27z
m-521 3 c60 -7 62 -8 59 -33 -3 -23 -7 -26 -40 -25 l-38 1 0 -94 0 -94 -27 3
-28 3 0 92 0 91 -37 6 c-32 5 -38 10 -38 31 0 23 4 25 44 25 23 0 71 -3 105
-6z m141 -39 c0 -35 0 -35 44 -35 43 0 45 1 48 33 2 27 8 33 31 35 l27 3 0
-120 c0 -111 -1 -120 -20 -126 -32 -10 -40 3 -40 61 l0 54 -45 0 -44 0 -3 -57
c-3 -54 -5 -58 -28 -58 -25 0 -25 0 -28 109 -1 61 0 116 2 123 3 7 17 13 31
13 22 0 25 -4 25 -35z m2338 -237 l3 -47 42 -3 42 -3 0 -292 c0 -160 -3 -294
-6 -297 -3 -4 -30 -3 -60 2 l-54 8 3 137 3 137 -85 0 -86 0 0 -139 0 -138 -52
-6 c-29 -2 -56 -3 -60 0 -10 5 -10 361 -1 496 l6 97 44 0 43 0 0 43 c0 24 3
47 7 51 4 4 52 5 107 4 l101 -3 3 -47z m-386 -302 c-1 -187 -4 -341 -5 -342
-5 -5 -298 -29 -303 -25 -9 9 -4 100 6 106 6 4 46 10 91 14 44 5 81 10 83 12
2 2 6 104 10 227 l7 222 -51 0 -50 0 0 49 c0 29 5 53 13 58 12 8 132 21 177
19 l25 -1 -3 -339z m656 328 c7 -2 12 -21 12 -48 l0 -44 45 -6 45 -7 0 -50 c0
-42 3 -49 19 -49 11 0 26 -3 35 -6 12 -5 15 4 18 43 3 52 5 53 76 37 20 -4 22
-1 22 42 l0 46 43 -7 c86 -15 80 16 72 -363 -4 -186 -8 -338 -10 -340 -1 -2
-27 3 -56 11 l-54 13 -3 191 -2 191 -30 4 c-25 4 -30 1 -30 -16 0 -50 -11 -66
-44 -65 -69 2 -81 11 -81 59 0 42 -2 44 -32 51 l-33 6 0 -106 c0 -58 -3 -143
-7 -188 l-6 -83 -33 0 c-18 0 -44 4 -59 10 l-26 10 6 327 c4 181 8 334 11 341
3 11 59 10 102 -4z m-1320 -121 l-3 -57 -135 -21 -135 -20 -3 -86 -3 -86 83
14 c46 7 89 11 96 8 13 -5 17 -82 4 -101 -4 -6 -46 -17 -94 -24 l-88 -12 0
-84 c0 -46 3 -84 8 -84 4 0 61 9 127 20 66 11 126 20 133 20 10 0 12 -15 10
-57 l-3 -58 -170 -27 c-93 -14 -183 -27 -200 -27 l-30 -1 3 337 c2 186 6 340
8 342 5 5 331 58 367 60 28 1 28 1 25 -56z m-2191 -48 c37 -9 78 -18 91 -20
l22 -5 0 -340 c0 -186 -4 -341 -8 -344 -5 -3 -74 11 -155 30 l-147 36 0 52 c0
29 2 55 6 58 4 5 100 -16 162 -36 l22 -7 0 230 0 230 -42 8 -43 9 -3 57 c-3
66 -7 64 95 42z m1435 -293 c-2 -247 0 -282 13 -282 19 0 211 28 243 35 21 5
22 2 22 -55 0 -33 -1 -60 -3 -60 -2 0 -80 -11 -173 -25 -93 -14 -181 -25 -196
-25 l-28 0 1 223 c1 122 4 276 8 342 l6 120 40 6 c76 12 70 35 67 -279z
m-1144 242 c9 -3 12 -79 12 -339 0 -376 5 -353 -75 -341 l-45 7 0 338 c0 186
3 341 7 344 6 6 71 1 101 -9z m862 -40 l0 -45 48 3 47 3 3 -49 c2 -27 0 -52
-5 -56 -4 -4 -32 -10 -60 -14 l-53 -7 0 46 0 45 -47 0 c-27 0 -65 -3 -85 -6
l-38 -7 0 -223 0 -224 34 0 c18 0 54 3 80 6 l46 7 0 83 0 84 -46 -7 -45 -6 3
59 3 59 100 11 c55 6 104 8 108 4 5 -4 5 -95 0 -201 l-8 -194 -110 -12 c-60
-6 -129 -12 -152 -12 l-43 -1 0 45 0 45 -45 0 -45 0 2 248 3 247 47 3 47 3 3
47 3 47 50 6 c28 3 74 7 103 7 l52 2 0 -46z m-482 21 c7 -3 12 -22 12 -50 l0
-45 45 0 45 0 0 -295 0 -295 -60 0 -60 0 0 285 0 285 -80 0 -80 0 0 -272 c0
-150 -4 -279 -9 -286 -6 -11 -21 -12 -61 -5 l-52 8 1 334 c1 184 4 337 6 341
4 7 270 2 293 -5z"/>
<path d="M3670 935 l0 -85 80 0 80 0 0 85 0 85 -80 0 -80 0 0 -85z"/>
</g>
</svg>
